<svg xmlns="http://www.w3.org/2000/svg" width="2083" height="383" viewBox="0 0 2083 383">
  <defs>
    <style>
      .cls-1 {
        fill: #ba222d;
      }

      .cls-1, .cls-2, .cls-3, .cls-4 {
        fill-rule: evenodd;
      }

      .cls-2 {
        fill: #00a74c;
      }

      .cls-3 {
        fill: #2b3992;
      }

      .cls-4 {
        fill: #754e29;
      }
    </style>
  </defs>
  <path id="netams2" class="cls-1" d="M922.467,5.579V209.663L869.457,5.579H791.415V367.246H861.6V154.9l55.955,212.35h75.1V5.579h-70.19ZM1094.75,292.846V217.413h69.21V148.7h-69.21V79.979h84.91V5.579H1018.67V367.246h160.99v-74.4h-84.91ZM1378.94,84.113V5.579H1190.95V84.113h55.95V367.246h76.08V84.113h55.96Zm226.75,283.133L1550.23,5.579H1439.79l-55.46,361.667h73.62l9.82-75.433h52.52l10.31,75.433h75.09Zm-95.22-149.317h-32.88l16.19-120.9Zm278.3-212.35L1757.35,266.5,1727.41,5.579H1619.92V367.246h70.19V124.413l32.4,242.833h65.77l32.88-248.517V367.246h70.19V5.579H1788.77Zm193.87,366.834q48.6,0,74.61-29.45t26.01-82.667q0-68.709-45.65-100.75l-7.85-5.683q-24.06-19.63-31.9-29.45A34.593,34.593,0,0,1,1990,102.2q0-28.929,29.45-28.933a131.865,131.865,0,0,1,52.03,10.85V13.329Q2043.01,0.421,2004.73.413q-44.175,0-68.47,26.608t-24.3,76.208q0,64.591,56.45,107.984l8.34,5.683q14.73,13.442,19.88,24.025t5.15,26.092q0,32.55-31.9,32.55-33.39,0-54.48-15.5v72.85q22.56,15.5,67.24,15.5h0Z"/>
  <path id="red1" class="cls-1" d="M159.565,50.338c0-.006,41.237-9.475,80.333,40.675,15.626,20.045,30.158,49.794,45.759,76.266,52.719,89.456,79.818,199.358,194.222,199.974C604.2,367.921,630.73,246.184,673.085,175.413c2.084-3.483,21.493-42.309,45.759-75.249,37.58-51.013,80.333-47.793,80.333-47.793V10.33S754.5,6.28,717.827,39.819C691.055,64.306,689.1,64.587,673.085,88.979,606.5,190.406,571.3,328.876,479.879,328.611c-94.464-.275-135.4-167.7-191.172-238.965-15.99-20.431-24.458-34.386-41.483-48.938C209.716,8.652,159.565,5.6,159.565,5.6V50.338Z"/>
  <path id="green1" class="cls-2" d="M797.861,328.38c0,0.006-40.569,9.322-79.032-40.016-15.373-19.72-29.67-48.987-45.018-75.031C621.945,125.325,595.285,17.2,482.733,16.6c-122.3-.658-148.408,119.108-190.077,188.733-2.05,3.426-21.145,41.624-45.018,74.03-36.972,50.188-79.032,47.019-79.032,47.019V367.74s43.958,3.984,80.033-29.012c26.338-24.091,28.263-24.366,44.017-48.363C358.165,190.579,392.793,54.352,482.733,54.613c92.935,0.27,133.206,164.986,188.077,235.1,15.731,20.1,24.062,33.83,40.812,48.145,36.9,31.537,86.239,34.545,86.239,34.545V328.38Z"/>
  <path id="blue1" class="cls-3" d="M5.894,323.755s40.088,9.211,78.094-39.541c15.191-19.486,29.318-48.406,44.484-74.141,51.25-86.963,77.594-193.8,188.81-194.4C438.136,15.022,463.93,133.366,505.1,202.165c2.026,3.386,20.894,41.13,44.484,73.152,36.534,49.592,78.094,46.461,78.094,46.461v40.869s-43.436,3.937-79.082-28.667c-26.026-23.805-27.929-24.077-43.5-47.789-64.731-98.6-98.948-233.213-187.821-232.954C225.45,53.5,185.657,216.265,131.438,285.542,115.893,305.4,107.661,318.97,91.11,333.116,54.647,364.279,5.894,367.25,5.894,367.25V323.755Z"/>
  <path id="brown1" class="cls-4" d="M6.036,49.639c0-.006,40.617-9.327,79.125,40.042,15.391,19.732,29.706,49.018,45.072,75.077,51.927,88.064,78.618,196.255,191.3,196.861,122.45,0.658,148.584-119.183,190.3-188.852,2.053-3.429,21.17-41.65,45.072-74.077,37.015-50.219,79.125-47.049,79.125-47.049V10.255s-44.01-3.987-80.127,29.03c-26.369,24.106-28.3,24.382-44.07,48.394-65.585,99.848-100.254,236.163-190.3,235.9-93.044-.27-133.362-165.09-188.3-235.244-15.75-20.113-24.091-33.851-40.861-48.176C55.434,8.6,6.036,5.593,6.036,5.593V49.639Z"/>
</svg>
